<svg xmlns="http://www.w3.org/2000/svg" viewBox="0 0 64 64">
  <defs>
    <linearGradient id="w" x1="0" y1="0" x2="1" y2="0">
      <stop offset="0" stop-color="#00B4D8"/>
      <stop offset="1" stop-color="#90E0EF"/>
    </linearGradient>
  </defs>
  <rect width="64" height="64" rx="16" fill="#0A2342"/>
  <circle cx="32" cy="25" r="9" fill="#C9A84C"/>
  <g stroke="#C9A84C" stroke-width="2.4" stroke-linecap="round">
    <line x1="32" y1="7" x2="32" y2="11"/>
    <line x1="18" y1="11" x2="20.5" y2="13.5"/>
    <line x1="46" y1="11" x2="43.5" y2="13.5"/>
    <line x1="13" y1="25" x2="16.5" y2="25"/>
    <line x1="51" y1="25" x2="47.5" y2="25"/>
  </g>
  <path d="M6 40c4 0 4-3.2 8-3.2S18 40 22 40s4-3.2 8-3.2S34 40 38 40s4-3.2 8-3.2S50 40 54 40s4-3.2 4-3.2V58H6Z" fill="url(#w)"/>
  <path d="M6 48c4 0 4-2.8 8-2.8S18 48 22 48s4-2.8 8-2.8S34 48 38 48s4-2.8 8-2.8S50 48 54 48s4-2.8 4-2.8V58H6Z" fill="#fff" opacity="0.85"/>
</svg>
